<?xml version="1.0" encoding="utf-8"?>
<!-- Generator: Adobe Illustrator 23.0.1, SVG Export Plug-In . SVG Version: 6.00 Build 0)  -->
<!DOCTYPE svg PUBLIC "-//W3C//DTD SVG 1.1//EN" "http://www.w3.org/Graphics/SVG/1.1/DTD/svg11.dtd" [
	<!ENTITY ns_extend "http://ns.adobe.com/Extensibility/1.0/">
	<!ENTITY ns_ai "http://ns.adobe.com/AdobeIllustrator/10.0/">
	<!ENTITY ns_graphs "http://ns.adobe.com/Graphs/1.0/">
	<!ENTITY ns_vars "http://ns.adobe.com/Variables/1.0/">
	<!ENTITY ns_imrep "http://ns.adobe.com/ImageReplacement/1.0/">
	<!ENTITY ns_sfw "http://ns.adobe.com/SaveForWeb/1.0/">
	<!ENTITY ns_custom "http://ns.adobe.com/GenericCustomNamespace/1.0/">
	<!ENTITY ns_adobe_xpath "http://ns.adobe.com/XPath/1.0/">
]>
<svg version="1.1" id="wearos" xmlns:x="&ns_extend;" xmlns:i="&ns_ai;" xmlns:graph="&ns_graphs;"
	 xmlns="http://www.w3.org/2000/svg" xmlns:xlink="http://www.w3.org/1999/xlink" x="0px" y="0px" viewBox="0 0 469.7 359"
	 style="enable-background:new 0 0 469.7 359;" xml:space="preserve">
<style type="text/css">
	.st0{fill:#00A94B;}
	.st1{fill:#FF4131;}
	.st2{fill:#FFBC00;}
	.st3{fill:#0085F7;}
</style>
<metadata>
	<sfw  xmlns="&ns_sfw;">
		<slices></slices>
		<sliceSourceBounds  bottomLeftOrigin="true" height="359" width="469.7" x="20.9" y="64.2"></sliceSourceBounds>
	</sfw>
</metadata>
<g>
	<circle class="st0" cx="369.9" cy="146.4" r="48.7"/>
	<circle class="st1" cx="424.2" cy="46.3" r="45.5"/>
	<path class="st2" d="M305.5,359c-17.4,0-34.1-10.1-41.6-27L144.6,64.1c-10.2-23,0.1-49.9,23.1-60.1c23-10.2,49.9,0.1,60.1,23.1
		l119.3,267.9c10.2,23-0.1,49.9-23.1,60.1C318,357.8,311.7,359,305.5,359z"/>
	<path class="st3" d="M164.7,358.3c-19,0-37.1-11-45.3-29.4L4.3,70.3C-6.8,45.3,4.4,16,29.4,4.9S83.7,5,94.8,30l115.1,258.6
		c11.1,25-0.1,54.3-25.1,65.4C178.3,356.9,171.4,358.3,164.7,358.3z"/>
</g>
</svg>
